HIERARCHY
ROOT Hips
{
    OFFSET   0.000000   0.000000   0.000000
    CHANNELS 6 Xposition Yposition Zposition Zrotation Xrotation Yrotation
    JOINT Chest
    {
        OFFSET   0.000000   8.007230   0.000000
        CHANNELS 3 Zrotation Xrotation Yrotation
        JOINT Chest2
        {
            OFFSET   0.000000  22.077100   0.000000
            CHANNELS 3 Zrotation Xrotation Yrotation
            JOINT Neck
            {
                OFFSET   0.000000  23.254800  -0.000021
                CHANNELS 3 Zrotation Xrotation Yrotation
                JOINT Head
                {
                    OFFSET   0.000000  14.370000   1.956610
                    CHANNELS 3 Zrotation Xrotation Yrotation
                    End Site
                    {
                        OFFSET   0.000000  19.566000   0.000000
                    }
                }
            }
            JOINT LeftCollar
            {
                OFFSET   3.911900  19.017000  -0.467063
                CHANNELS 3 Zrotation Xrotation Yrotation
                JOINT LeftShoulder
                {
                    OFFSET  10.383700   0.000000   0.000000
                    CHANNELS 3 Zrotation Xrotation Yrotation
                    JOINT LeftElbow
                    {
                        OFFSET  26.662100   0.001529   0.000325
                        CHANNELS 3 Zrotation Xrotation Yrotation
                        JOINT LeftWrist
                        {
                            OFFSET  28.869000  -0.000011  -0.000096
                            CHANNELS 3 Zrotation Xrotation Yrotation
                            JOINT LeftFinger0
                            {
                                OFFSET   2.044650  -2.323460   3.252850
                                CHANNELS 3 Zrotation Xrotation Yrotation
                                JOINT LeftFinger01
                                {
                                    OFFSET   3.088130   0.000000   0.000000
                                    CHANNELS 3 Zrotation Xrotation Yrotation
                                    JOINT LeftFinger02
                                    {
                                        OFFSET   2.639460   0.000000   0.000000
                                        CHANNELS 3 Zrotation Xrotation Yrotation
                                        End Site
                                        {
                                            OFFSET   2.582190   0.000000   0.000000
                                        }
                                    }
                                }
                            }
                            JOINT LeftFinger1
                            {
                                OFFSET   8.364480   0.000000   3.252850
                                CHANNELS 3 Zrotation Xrotation Yrotation
                                JOINT LeftFinger11
                                {
                                    OFFSET   4.646930   0.000000   0.000000
                                    CHANNELS 3 Zrotation Xrotation Yrotation
                                    JOINT LeftFinger12
                                    {
                                        OFFSET   2.323460   0.000000   0.000000
                                        CHANNELS 3 Zrotation Xrotation Yrotation
                                        End Site
                                        {
                                            OFFSET   2.273050   0.000000   0.000000
                                        }
                                    }
                                }
                            }
                            JOINT LeftFinger2
                            {
                                OFFSET   8.364480   0.000016   1.078090
                                CHANNELS 3 Zrotation Xrotation Yrotation
                                JOINT LeftFinger21
                                {
                                    OFFSET   5.111620   0.000000   0.000000
                                    CHANNELS 3 Zrotation Xrotation Yrotation
                                    JOINT LeftFinger22
                                    {
                                        OFFSET   2.788160   0.000017   0.000000
                                        CHANNELS 3 Zrotation Xrotation Yrotation
                                        End Site
                                        {
                                            OFFSET   2.727660   0.000000   0.000000
                                        }
                                    }
                                }
                            }
                            JOINT LeftFinger3
                            {
                                OFFSET   7.899780   0.000015  -1.078090
                                CHANNELS 3 Zrotation Xrotation Yrotation
                                JOINT LeftFinger31
                                {
                                    OFFSET   4.646920   0.000000   0.000000
                                    CHANNELS 3 Zrotation Xrotation Yrotation
                                    JOINT LeftFinger32
                                    {
                                        OFFSET   2.323470   0.000000   0.000000
                                        CHANNELS 3 Zrotation Xrotation Yrotation
                                        End Site
                                        {
                                            OFFSET   2.273050   0.000000   0.000000
                                        }
                                    }
                                }
                            }
                            JOINT LeftFinger4
                            {
                                OFFSET   7.435090   0.000000  -3.252850
                                CHANNELS 3 Zrotation Xrotation Yrotation
                                JOINT LeftFinger41
                                {
                                    OFFSET   3.717550   0.000000   0.000000
                                    CHANNELS 3 Zrotation Xrotation Yrotation
                                    JOINT LeftFinger42
                                    {
                                        OFFSET   1.858760   0.000000   0.000000
                                        CHANNELS 3 Zrotation Xrotation Yrotation
                                        End Site
                                        {
                                            OFFSET   1.818440   0.000000   0.000000
                                        }
                                    }
                                }
                            }
                        }
                    }
                }
            }
            JOINT RightCollar
            {
                OFFSET  -3.911900  19.017000  -0.467062
                CHANNELS 3 Zrotation Xrotation Yrotation
                JOINT RightShoulder
                {
                    OFFSET -10.383700   0.000015   0.000000
                    CHANNELS 3 Zrotation Xrotation Yrotation
                    JOINT RightElbow
                    {
                        OFFSET -26.662100   0.001341   0.000385
                        CHANNELS 3 Zrotation Xrotation Yrotation
                        JOINT RightWrist
                        {
                            OFFSET -28.869000   0.000025  -0.000080
                            CHANNELS 3 Zrotation Xrotation Yrotation
                            JOINT RightFinger0
                            {
                                OFFSET  -2.044650  -2.323490   3.252850
                                CHANNELS 3 Zrotation Xrotation Yrotation
                                JOINT RightFinger01
                                {
                                    OFFSET  -3.088130   0.000000   0.000000
                                    CHANNELS 3 Zrotation Xrotation Yrotation
                                    JOINT RightFinger02
                                    {
                                        OFFSET  -2.639460   0.000000   0.000000
                                        CHANNELS 3 Zrotation Xrotation Yrotation
                                        End Site
                                        {
                                            OFFSET  -2.582190   0.000000   0.000000
                                        }
                                    }
                                }
                            }
                            JOINT RightFinger1
                            {
                                OFFSET  -8.364480   0.000000   3.252850
                                CHANNELS 3 Zrotation Xrotation Yrotation
                                JOINT RightFinger11
                                {
                                    OFFSET  -4.646930   0.000000   0.000000
                                    CHANNELS 3 Zrotation Xrotation Yrotation
                                    JOINT RightFinger12
                                    {
                                        OFFSET  -2.323470   0.000000   0.000000
                                        CHANNELS 3 Zrotation Xrotation Yrotation
                                        End Site
                                        {
                                            OFFSET  -2.273050   0.000000   0.000000
                                        }
                                    }
                                }
                            }
                            JOINT RightFinger2
                            {
                                OFFSET  -8.364480   0.000000   1.078090
                                CHANNELS 3 Zrotation Xrotation Yrotation
                                JOINT RightFinger21
                                {
                                    OFFSET  -5.111610   0.000000   0.000000
                                    CHANNELS 3 Zrotation Xrotation Yrotation
                                    JOINT RightFinger22
                                    {
                                        OFFSET  -2.788160   0.000000   0.000000
                                        CHANNELS 3 Zrotation Xrotation Yrotation
                                        End Site
                                        {
                                            OFFSET  -2.727660   0.000000   0.000000
                                        }
                                    }
                                }
                            }
                            JOINT RightFinger3
                            {
                                OFFSET  -7.899780   0.000000  -1.078090
                                CHANNELS 3 Zrotation Xrotation Yrotation
                                JOINT RightFinger31
                                {
                                    OFFSET  -4.646920   0.000000   0.000000
                                    CHANNELS 3 Zrotation Xrotation Yrotation
                                    JOINT RightFinger32
                                    {
                                        OFFSET  -2.323470   0.000000   0.000000
                                        CHANNELS 3 Zrotation Xrotation Yrotation
                                        End Site
                                        {
                                            OFFSET  -2.273050   0.000000   0.000000
                                        }
                                    }
                                }
                            }
                            JOINT RightFinger4
                            {
                                OFFSET  -7.435090   0.000000  -3.252850
                                CHANNELS 3 Zrotation Xrotation Yrotation
                                JOINT RightFinger41
                                {
                                    OFFSET  -3.717550   0.000000   0.000000
                                    CHANNELS 3 Zrotation Xrotation Yrotation
                                    JOINT RightFinger42
                                    {
                                        OFFSET  -1.858770   0.000000   0.000000
                                        CHANNELS 3 Zrotation Xrotation Yrotation
                                        End Site
                                        {
                                            OFFSET  -1.818440   0.000000   0.000000
                                        }
                                    }
                                }
                            }
                        }
                    }
                }
            }
        }
    }
    JOINT LeftHip
    {
        OFFSET   9.783010   0.000000   0.000000
        CHANNELS 3 Zrotation Xrotation Yrotation
        JOINT LeftKnee
        {
            OFFSET   0.000070 -41.789100   0.000028
            CHANNELS 3 Zrotation Xrotation Yrotation
            JOINT LeftAnkle
            {
                OFFSET   0.000087 -41.133200  -0.000100
                CHANNELS 3 Zrotation Xrotation Yrotation
                JOINT LeftToe
                {
                    OFFSET   0.000000  -6.358960  14.674500
                    CHANNELS 3 Zrotation Xrotation Yrotation
                    End Site
                    {
                        OFFSET   0.000000   0.000000   3.913200
                    }
                }
            }
        }
    }
    JOINT RightHip
    {
        OFFSET  -9.783020   0.000000   0.000000
        CHANNELS 3 Zrotation Xrotation Yrotation
        JOINT RightKnee
        {
            OFFSET   0.000044 -41.789100  -0.000870
            CHANNELS 3 Zrotation Xrotation Yrotation
            JOINT RightAnkle
            {
                OFFSET  -0.000090 -41.133200  -0.000245
                CHANNELS 3 Zrotation Xrotation Yrotation
                JOINT RightToe
                {
                    OFFSET   0.000000  -6.358960  14.674500
                    CHANNELS 3 Zrotation Xrotation Yrotation
                    End Site
                    {
                        OFFSET   0.000000   0.000000   3.913200
                    }
                }
            }
        }
    }
}
MOTION
Frames: 4
Frame Time:   0.016667
  0.986587  90.098800  -2.138810  -1.422240  -3.970590  -5.288880  -0.000663   3.833700  -0.671561   0.043976   7.667120  -1.347630   0.960585  -0.489453   0.001499   1.572070  -0.991633   9.703270  -8.004610  -2.008950   7.889930 -70.635400  20.606400  -0.734351  -3.919790  -7.069540 -17.923700  12.772700   0.895928   8.349320  48.868500  38.599900 -78.812600 -14.545800   0.000891   0.000250  -2.272880   0.002773   0.005798 -29.606100   4.675740  -8.154070 -24.496300   0.001570   0.001963 -17.157900   0.002875   0.005907 -28.659700   0.568589  -1.033580 -38.525200  -0.000267   0.001910 -25.657700  -0.001557   0.003316 -27.369800   0.544824  -1.046180 -28.567500   0.008174   0.009047 -19.026000  -0.003566   0.004048 -27.344200  -2.021030   3.886110 -41.119600  -0.003276   0.002124 -27.385600  -0.005480   0.003511  11.465200   2.979750   9.157980  66.855500   9.085660   1.518660   0.808316  -6.802980  16.511000 -16.951100 -11.782100  -4.534360 -40.063300  34.436800  71.346900  28.492600   0.005414  -0.002833   9.246310  -0.001060  -0.005990  33.138000   0.786875   1.199570  27.120100   0.001291  -0.005058  18.984100   0.009314  -0.005751  28.597900  -2.080030  -3.808880  38.447500   0.003425  -0.002248  25.606000   0.000082  -0.001390  28.601500  -3.322480  -6.064820  41.712700   0.001761   0.002757  27.780700  -0.006592   0.001590  40.307100  -4.484080  -5.265870  60.770100  -0.002976   0.005121  40.472900  -0.007822  -0.003314  -0.086778   3.732380   2.499910   0.521754   1.286210  10.323000  -3.669400  -2.808110   6.180920  -0.000000   0.000000   0.000000   3.347210   2.562280  -6.043030  -1.901230   4.562380  -7.133240 -10.053000   0.369707   2.526940  -0.000000   0.000000   0.000000
  0.980596  90.098800  -2.138630  -1.422030  -3.978090  -5.276720  -0.000753   3.833600  -0.668465   0.043589   7.666960  -1.341420   0.959209  -0.479029   0.001508   1.568630  -0.970598   9.712830  -8.004480  -2.008910   7.898560 -70.655200  20.606000  -0.764982  -3.899880  -7.047930 -17.922800  12.763900   0.864162   8.333670  48.849500  38.600400 -78.814800 -14.564900   0.000877   0.000282  -2.282430   0.002775   0.005784 -29.615900   4.671490  -8.147780 -24.503800   0.001564   0.001952 -17.157900   0.002875   0.005899 -28.659800   0.564662  -1.029070 -38.552200  -0.000261   0.001906 -25.675800  -0.001553   0.003309 -27.369900   0.541067  -1.041600 -28.584900   0.008173   0.009040 -19.037500  -0.003567   0.004044 -27.353900  -2.021540   3.887900 -41.134200  -0.003274   0.002117 -27.395300  -0.005476   0.003506  11.474200   2.973510   9.175210  66.856800   9.112340   1.519380   0.812748  -6.849430  16.471400 -16.954400 -11.771900  -4.522430 -40.052700  34.428600  71.346600  28.503100   0.005415  -0.002856   9.251570  -0.001056  -0.005978  33.145300   0.787409   1.201950  27.119800   0.001289  -0.005056  18.983900   0.009316  -0.005741  28.598500  -2.075600  -3.800620  38.460600   0.003417  -0.002236  25.614800   0.000084  -0.001383  28.602800  -3.316680  -6.054120  41.725300   0.001759   0.002765  27.789000  -0.006593   0.001596  40.311200  -4.476610  -5.256230  60.775900  -0.002970   0.005129  40.476700  -0.007822  -0.003306  -0.085836   3.735650   2.499990   0.521947   1.288960  10.317900  -3.669630  -2.809630   6.175260   0.000000   0.000000   0.000000   3.344610   2.570680  -6.037270  -1.895300   4.561760  -7.140720 -10.054600   0.370241   2.517750  -0.000000   0.000000   0.000000
  0.971334  90.098800  -2.138450  -1.422160  -3.993800  -5.259280  -0.000886   3.833510  -0.663225   0.042962   7.666810  -1.330900   0.954971  -0.461538   0.001524   1.562840  -0.935281   9.733630  -8.004110  -2.008820   7.914320 -70.696400  20.603700  -0.818625  -3.860910  -7.002160 -17.921000  12.743900   0.832410   8.309440  48.839200  38.604100 -78.829600 -14.584000   0.000847   0.000314  -2.291980   0.002779   0.005769 -29.626200   4.665210  -8.139210 -24.511300   0.001548   0.001923 -17.157900   0.002875   0.005877 -28.660000   0.558386  -1.021030 -38.589000  -0.000248   0.001893 -25.700300  -0.001544   0.003292 -27.370100   0.535071  -1.033440 -28.609200   0.008172   0.009023 -19.053700  -0.003567   0.004035 -27.367300  -2.022060   3.889680 -41.154400  -0.003270   0.002102 -27.408800  -0.005463   0.003491  11.487900   2.960550   9.199710  66.865700   9.169210   1.523860   0.827533  -6.947310  16.414100 -16.972400 -11.733200  -4.491210 -40.032300  34.420500  71.346300  28.513700   0.005417  -0.002879   9.256830  -0.001045  -0.005954  33.152400   0.791146   1.210960  27.119300   0.001284  -0.005047  18.983600   0.009323  -0.005715  28.600000  -2.064950  -3.780970  38.473800   0.003397  -0.002205  25.623600   0.000087  -0.001365  28.606000  -3.302800  -6.028560  41.737800   0.001751   0.002786  27.797400  -0.006596   0.001611  40.317300  -4.458140  -5.233740  60.781700  -0.002952   0.005147  40.480600  -0.007824  -0.003283  -0.083194   3.745470   2.500090   0.522190   1.291710  10.310700  -3.670710  -2.811160   6.166750  -0.000000   0.000000  -0.000000   3.337420   2.586000  -6.027740  -1.882130   4.561090  -7.154940 -10.058900   0.370776   2.505340  -0.000000   0.000000   0.000000
  0.965247  90.098700  -2.139140  -1.423090  -4.012340  -5.250320  -0.001030   3.835510  -0.658635   0.042382   7.670800  -1.321680   0.947413  -0.447195   0.001540   1.554330  -0.906261   9.759130  -8.004030  -2.005090   7.929830 -70.744700  20.580700  -0.871032  -3.822510  -6.946530 -17.921200  12.712500   0.833291   8.296060  48.855400  38.613400 -78.845000 -14.579200   0.000805   0.000275  -2.289580   0.002785   0.005768 -29.623600   4.661300  -8.136380 -24.509100   0.001522   0.001881 -17.156400   0.002873   0.005836 -28.660200   0.552921  -1.011420 -38.600800  -0.000230   0.001870 -25.708100  -0.001530   0.003266 -27.371600   0.529874  -1.023670 -28.619700   0.008173   0.009002 -19.060700  -0.003565   0.004024 -27.372400  -2.020760   3.888300 -41.162100  -0.003269   0.002082 -27.414000  -0.005442   0.003466  11.496500   2.946060   9.211390  66.887900   9.243120   1.538090   0.857608  -7.082380  16.381900 -17.007800 -11.652500  -4.437130 -40.045900  34.434100  71.363600  28.501500   0.005391  -0.002847   9.250760  -0.001028  -0.005928  33.147400   0.800465   1.226340  27.119100   0.001279  -0.005030  18.983400   0.009333  -0.005675  28.601900  -2.050310  -3.754200  38.458900   0.003367  -0.002158  25.613700   0.000092  -0.001334  28.610100  -3.283700  -5.993530  41.727400   0.001738   0.002821  27.790400  -0.006602   0.001629  40.311500  -4.431540  -5.203960  60.770000  -0.002922   0.005172  40.472900  -0.007828  -0.003247  -0.078615   3.762400   2.500130   0.522364   1.289860  10.307000  -3.674680  -2.809840   6.161910   0.000000   0.000000   0.000000   3.324440   2.600710  -6.020220  -1.862510   4.565030  -7.171660 -10.066100   0.370746   2.502230  -0.000000   0.000000   0.000000
